<?xml version="1.0" encoding="utf-8" standalone="no"?>
<!DOCTYPE svg PUBLIC "-//W3C//DTD SVG 1.1//EN"
  "http://www.w3.org/Graphics/SVG/1.1/DTD/svg11.dtd">
<svg xmlns:xlink="http://www.w3.org/1999/xlink" width="720pt" height="432pt" viewBox="0 0 720 432" xmlns="http://www.w3.org/2000/svg" version="1.1">
 <metadata>
  <rdf:RDF xmlns:dc="http://purl.org/dc/elements/1.1/" xmlns:cc="http://creativecommons.org/ns#" xmlns:rdf="http://www.w3.org/1999/02/22-rdf-syntax-ns#">
   <cc:Work>
    <dc:type rdf:resource="http://purl.org/dc/dcmitype/StillImage"/>
    <dc:date>2023-04-19T17:10:06.371409</dc:date>
    <dc:format>image/svg+xml</dc:format>
    <dc:creator>
     <cc:Agent>
      <dc:title>Matplotlib v3.7.1, https://matplotlib.org/</dc:title>
     </cc:Agent>
    </dc:creator>
   </cc:Work>
  </rdf:RDF>
 </metadata>
 <defs>
  <style type="text/css">*{stroke-linejoin: round; stroke-linecap: butt}</style>
 </defs>
 <g id="figure_1">
  <g id="patch_1">
   <path d="M 0 432 
L 720 432 
L 720 0 
L 0 0 
L 0 432 
z
" style="fill: none"/>
  </g>
  <g id="axes_1">
   <g id="patch_2">
    <path d="M 50.87 389.68 
L 709.2 389.68 
L 709.2 12.231256 
L 50.87 12.231256 
L 50.87 389.68 
z
" style="fill: none"/>
   </g>
   <g id="matplotlib.axis_1">
    <g id="xtick_1">
     <g id="line2d_1">
      <defs>
       <path id="m35ed82e259" d="M 0 0 
L 0 3.5 
" style="stroke: #36525c; stroke-width: 2"/>
      </defs>
      <g>
       <use xlink:href="#m35ed82e259" x="80.794091" y="389.68" style="fill: #36525c; stroke: #36525c; stroke-width: 2"/>
      </g>
     </g>
     <g id="text_1">
      <!-- 0 -->
      <g transform="translate(77.612841 404.278437) scale(0.1 -0.1)">
       <defs>
        <path id="DejaVuSans-30" d="M 2034 4250 
Q 1547 4250 1301 3770 
Q 1056 3291 1056 2328 
Q 1056 1369 1301 889 
Q 1547 409 2034 409 
Q 2525 409 2770 889 
Q 3016 1369 3016 2328 
Q 3016 3291 2770 3770 
Q 2525 4250 2034 4250 
z
M 2034 4750 
Q 2819 4750 3233 4129 
Q 3647 3509 3647 2328 
Q 3647 1150 3233 529 
Q 2819 -91 2034 -91 
Q 1250 -91 836 529 
Q 422 1150 422 2328 
Q 422 3509 836 4129 
Q 1250 4750 2034 4750 
z
" transform="scale(0.015625)"/>
       </defs>
       <use xlink:href="#DejaVuSans-30"/>
      </g>
     </g>
    </g>
    <g id="xtick_2">
     <g id="line2d_2">
      <g>
       <use xlink:href="#m35ed82e259" x="104.733364" y="389.68" style="fill: #36525c; stroke: #36525c; stroke-width: 2"/>
      </g>
     </g>
     <g id="text_2">
      <!-- 1 -->
      <g transform="translate(101.552114 404.278437) scale(0.1 -0.1)">
       <defs>
        <path id="DejaVuSans-31" d="M 794 531 
L 1825 531 
L 1825 4091 
L 703 3866 
L 703 4441 
L 1819 4666 
L 2450 4666 
L 2450 531 
L 3481 531 
L 3481 0 
L 794 0 
L 794 531 
z
" transform="scale(0.015625)"/>
       </defs>
       <use xlink:href="#DejaVuSans-31"/>
      </g>
     </g>
    </g>
    <g id="xtick_3">
     <g id="line2d_3">
      <g>
       <use xlink:href="#m35ed82e259" x="128.672636" y="389.68" style="fill: #36525c; stroke: #36525c; stroke-width: 2"/>
      </g>
     </g>
     <g id="text_3">
      <!-- 2 -->
      <g transform="translate(125.491386 404.278437) scale(0.1 -0.1)">
       <defs>
        <path id="DejaVuSans-32" d="M 1228 531 
L 3431 531 
L 3431 0 
L 469 0 
L 469 531 
Q 828 903 1448 1529 
Q 2069 2156 2228 2338 
Q 2531 2678 2651 2914 
Q 2772 3150 2772 3378 
Q 2772 3750 2511 3984 
Q 2250 4219 1831 4219 
Q 1534 4219 1204 4116 
Q 875 4013 500 3803 
L 500 4441 
Q 881 4594 1212 4672 
Q 1544 4750 1819 4750 
Q 2544 4750 2975 4387 
Q 3406 4025 3406 3419 
Q 3406 3131 3298 2873 
Q 3191 2616 2906 2266 
Q 2828 2175 2409 1742 
Q 1991 1309 1228 531 
z
" transform="scale(0.015625)"/>
       </defs>
       <use xlink:href="#DejaVuSans-32"/>
      </g>
     </g>
    </g>
    <g id="xtick_4">
     <g id="line2d_4">
      <g>
       <use xlink:href="#m35ed82e259" x="152.611909" y="389.68" style="fill: #36525c; stroke: #36525c; stroke-width: 2"/>
      </g>
     </g>
     <g id="text_4">
      <!-- 3 -->
      <g transform="translate(149.430659 404.278437) scale(0.1 -0.1)">
       <defs>
        <path id="DejaVuSans-33" d="M 2597 2516 
Q 3050 2419 3304 2112 
Q 3559 1806 3559 1356 
Q 3559 666 3084 287 
Q 2609 -91 1734 -91 
Q 1441 -91 1130 -33 
Q 819 25 488 141 
L 488 750 
Q 750 597 1062 519 
Q 1375 441 1716 441 
Q 2309 441 2620 675 
Q 2931 909 2931 1356 
Q 2931 1769 2642 2001 
Q 2353 2234 1838 2234 
L 1294 2234 
L 1294 2753 
L 1863 2753 
Q 2328 2753 2575 2939 
Q 2822 3125 2822 3475 
Q 2822 3834 2567 4026 
Q 2313 4219 1838 4219 
Q 1578 4219 1281 4162 
Q 984 4106 628 3988 
L 628 4550 
Q 988 4650 1302 4700 
Q 1616 4750 1894 4750 
Q 2613 4750 3031 4423 
Q 3450 4097 3450 3541 
Q 3450 3153 3228 2886 
Q 3006 2619 2597 2516 
z
" transform="scale(0.015625)"/>
       </defs>
       <use xlink:href="#DejaVuSans-33"/>
      </g>
     </g>
    </g>
    <g id="xtick_5">
     <g id="line2d_5">
      <g>
       <use xlink:href="#m35ed82e259" x="176.551182" y="389.68" style="fill: #36525c; stroke: #36525c; stroke-width: 2"/>
      </g>
     </g>
     <g id="text_5">
      <!-- 4 -->
      <g transform="translate(173.369932 404.278437) scale(0.1 -0.1)">
       <defs>
        <path id="DejaVuSans-34" d="M 2419 4116 
L 825 1625 
L 2419 1625 
L 2419 4116 
z
M 2253 4666 
L 3047 4666 
L 3047 1625 
L 3713 1625 
L 3713 1100 
L 3047 1100 
L 3047 0 
L 2419 0 
L 2419 1100 
L 313 1100 
L 313 1709 
L 2253 4666 
z
" transform="scale(0.015625)"/>
       </defs>
       <use xlink:href="#DejaVuSans-34"/>
      </g>
     </g>
    </g>
    <g id="xtick_6">
     <g id="line2d_6">
      <g>
       <use xlink:href="#m35ed82e259" x="200.490455" y="389.68" style="fill: #36525c; stroke: #36525c; stroke-width: 2"/>
      </g>
     </g>
     <g id="text_6">
      <!-- 5 -->
      <g transform="translate(197.309205 404.278437) scale(0.1 -0.1)">
       <defs>
        <path id="DejaVuSans-35" d="M 691 4666 
L 3169 4666 
L 3169 4134 
L 1269 4134 
L 1269 2991 
Q 1406 3038 1543 3061 
Q 1681 3084 1819 3084 
Q 2600 3084 3056 2656 
Q 3513 2228 3513 1497 
Q 3513 744 3044 326 
Q 2575 -91 1722 -91 
Q 1428 -91 1123 -41 
Q 819 9 494 109 
L 494 744 
Q 775 591 1075 516 
Q 1375 441 1709 441 
Q 2250 441 2565 725 
Q 2881 1009 2881 1497 
Q 2881 1984 2565 2268 
Q 2250 2553 1709 2553 
Q 1456 2553 1204 2497 
Q 953 2441 691 2322 
L 691 4666 
z
" transform="scale(0.015625)"/>
       </defs>
       <use xlink:href="#DejaVuSans-35"/>
      </g>
     </g>
    </g>
    <g id="xtick_7">
     <g id="line2d_7">
      <g>
       <use xlink:href="#m35ed82e259" x="224.429727" y="389.68" style="fill: #36525c; stroke: #36525c; stroke-width: 2"/>
      </g>
     </g>
     <g id="text_7">
      <!-- 6 -->
      <g transform="translate(221.248477 404.278437) scale(0.1 -0.1)">
       <defs>
        <path id="DejaVuSans-36" d="M 2113 2584 
Q 1688 2584 1439 2293 
Q 1191 2003 1191 1497 
Q 1191 994 1439 701 
Q 1688 409 2113 409 
Q 2538 409 2786 701 
Q 3034 994 3034 1497 
Q 3034 2003 2786 2293 
Q 2538 2584 2113 2584 
z
M 3366 4563 
L 3366 3988 
Q 3128 4100 2886 4159 
Q 2644 4219 2406 4219 
Q 1781 4219 1451 3797 
Q 1122 3375 1075 2522 
Q 1259 2794 1537 2939 
Q 1816 3084 2150 3084 
Q 2853 3084 3261 2657 
Q 3669 2231 3669 1497 
Q 3669 778 3244 343 
Q 2819 -91 2113 -91 
Q 1303 -91 875 529 
Q 447 1150 447 2328 
Q 447 3434 972 4092 
Q 1497 4750 2381 4750 
Q 2619 4750 2861 4703 
Q 3103 4656 3366 4563 
z
" transform="scale(0.015625)"/>
       </defs>
       <use xlink:href="#DejaVuSans-36"/>
      </g>
     </g>
    </g>
    <g id="xtick_8">
     <g id="line2d_8">
      <g>
       <use xlink:href="#m35ed82e259" x="248.369" y="389.68" style="fill: #36525c; stroke: #36525c; stroke-width: 2"/>
      </g>
     </g>
     <g id="text_8">
      <!-- 7 -->
      <g transform="translate(245.18775 404.278437) scale(0.1 -0.1)">
       <defs>
        <path id="DejaVuSans-37" d="M 525 4666 
L 3525 4666 
L 3525 4397 
L 1831 0 
L 1172 0 
L 2766 4134 
L 525 4134 
L 525 4666 
z
" transform="scale(0.015625)"/>
       </defs>
       <use xlink:href="#DejaVuSans-37"/>
      </g>
     </g>
    </g>
    <g id="xtick_9">
     <g id="line2d_9">
      <g>
       <use xlink:href="#m35ed82e259" x="272.308273" y="389.68" style="fill: #36525c; stroke: #36525c; stroke-width: 2"/>
      </g>
     </g>
     <g id="text_9">
      <!-- 8 -->
      <g transform="translate(269.127023 404.278437) scale(0.1 -0.1)">
       <defs>
        <path id="DejaVuSans-38" d="M 2034 2216 
Q 1584 2216 1326 1975 
Q 1069 1734 1069 1313 
Q 1069 891 1326 650 
Q 1584 409 2034 409 
Q 2484 409 2743 651 
Q 3003 894 3003 1313 
Q 3003 1734 2745 1975 
Q 2488 2216 2034 2216 
z
M 1403 2484 
Q 997 2584 770 2862 
Q 544 3141 544 3541 
Q 544 4100 942 4425 
Q 1341 4750 2034 4750 
Q 2731 4750 3128 4425 
Q 3525 4100 3525 3541 
Q 3525 3141 3298 2862 
Q 3072 2584 2669 2484 
Q 3125 2378 3379 2068 
Q 3634 1759 3634 1313 
Q 3634 634 3220 271 
Q 2806 -91 2034 -91 
Q 1263 -91 848 271 
Q 434 634 434 1313 
Q 434 1759 690 2068 
Q 947 2378 1403 2484 
z
M 1172 3481 
Q 1172 3119 1398 2916 
Q 1625 2713 2034 2713 
Q 2441 2713 2670 2916 
Q 2900 3119 2900 3481 
Q 2900 3844 2670 4047 
Q 2441 4250 2034 4250 
Q 1625 4250 1398 4047 
Q 1172 3844 1172 3481 
z
" transform="scale(0.015625)"/>
       </defs>
       <use xlink:href="#DejaVuSans-38"/>
      </g>
     </g>
    </g>
    <g id="xtick_10">
     <g id="line2d_10">
      <g>
       <use xlink:href="#m35ed82e259" x="296.247545" y="389.68" style="fill: #36525c; stroke: #36525c; stroke-width: 2"/>
      </g>
     </g>
     <g id="text_10">
      <!-- 9 -->
      <g transform="translate(293.066295 404.278437) scale(0.1 -0.1)">
       <defs>
        <path id="DejaVuSans-39" d="M 703 97 
L 703 672 
Q 941 559 1184 500 
Q 1428 441 1663 441 
Q 2288 441 2617 861 
Q 2947 1281 2994 2138 
Q 2813 1869 2534 1725 
Q 2256 1581 1919 1581 
Q 1219 1581 811 2004 
Q 403 2428 403 3163 
Q 403 3881 828 4315 
Q 1253 4750 1959 4750 
Q 2769 4750 3195 4129 
Q 3622 3509 3622 2328 
Q 3622 1225 3098 567 
Q 2575 -91 1691 -91 
Q 1453 -91 1209 -44 
Q 966 3 703 97 
z
M 1959 2075 
Q 2384 2075 2632 2365 
Q 2881 2656 2881 3163 
Q 2881 3666 2632 3958 
Q 2384 4250 1959 4250 
Q 1534 4250 1286 3958 
Q 1038 3666 1038 3163 
Q 1038 2656 1286 2365 
Q 1534 2075 1959 2075 
z
" transform="scale(0.015625)"/>
       </defs>
       <use xlink:href="#DejaVuSans-39"/>
      </g>
     </g>
    </g>
    <g id="xtick_11">
     <g id="line2d_11">
      <g>
       <use xlink:href="#m35ed82e259" x="320.186818" y="389.68" style="fill: #36525c; stroke: #36525c; stroke-width: 2"/>
      </g>
     </g>
     <g id="text_11">
      <!-- 10 -->
      <g transform="translate(313.824318 404.278437) scale(0.1 -0.1)">
       <use xlink:href="#DejaVuSans-31"/>
       <use xlink:href="#DejaVuSans-30" x="63.623047"/>
      </g>
     </g>
    </g>
    <g id="xtick_12">
     <g id="line2d_12">
      <g>
       <use xlink:href="#m35ed82e259" x="344.126091" y="389.68" style="fill: #36525c; stroke: #36525c; stroke-width: 2"/>
      </g>
     </g>
     <g id="text_12">
      <!-- 11 -->
      <g transform="translate(337.763591 404.278437) scale(0.1 -0.1)">
       <use xlink:href="#DejaVuSans-31"/>
       <use xlink:href="#DejaVuSans-31" x="63.623047"/>
      </g>
     </g>
    </g>
    <g id="xtick_13">
     <g id="line2d_13">
      <g>
       <use xlink:href="#m35ed82e259" x="368.065364" y="389.68" style="fill: #36525c; stroke: #36525c; stroke-width: 2"/>
      </g>
     </g>
     <g id="text_13">
      <!-- 12 -->
      <g transform="translate(361.702864 404.278437) scale(0.1 -0.1)">
       <use xlink:href="#DejaVuSans-31"/>
       <use xlink:href="#DejaVuSans-32" x="63.623047"/>
      </g>
     </g>
    </g>
    <g id="xtick_14">
     <g id="line2d_14">
      <g>
       <use xlink:href="#m35ed82e259" x="392.004636" y="389.68" style="fill: #36525c; stroke: #36525c; stroke-width: 2"/>
      </g>
     </g>
     <g id="text_14">
      <!-- 13 -->
      <g transform="translate(385.642136 404.278437) scale(0.1 -0.1)">
       <use xlink:href="#DejaVuSans-31"/>
       <use xlink:href="#DejaVuSans-33" x="63.623047"/>
      </g>
     </g>
    </g>
    <g id="xtick_15">
     <g id="line2d_15">
      <g>
       <use xlink:href="#m35ed82e259" x="415.943909" y="389.68" style="fill: #36525c; stroke: #36525c; stroke-width: 2"/>
      </g>
     </g>
     <g id="text_15">
      <!-- 14 -->
      <g transform="translate(409.581409 404.278437) scale(0.1 -0.1)">
       <use xlink:href="#DejaVuSans-31"/>
       <use xlink:href="#DejaVuSans-34" x="63.623047"/>
      </g>
     </g>
    </g>
    <g id="xtick_16">
     <g id="line2d_16">
      <g>
       <use xlink:href="#m35ed82e259" x="439.883182" y="389.68" style="fill: #36525c; stroke: #36525c; stroke-width: 2"/>
      </g>
     </g>
     <g id="text_16">
      <!-- 15 -->
      <g transform="translate(433.520682 404.278437) scale(0.1 -0.1)">
       <use xlink:href="#DejaVuSans-31"/>
       <use xlink:href="#DejaVuSans-35" x="63.623047"/>
      </g>
     </g>
    </g>
    <g id="xtick_17">
     <g id="line2d_17">
      <g>
       <use xlink:href="#m35ed82e259" x="463.822455" y="389.68" style="fill: #36525c; stroke: #36525c; stroke-width: 2"/>
      </g>
     </g>
     <g id="text_17">
      <!-- 16 -->
      <g transform="translate(457.459955 404.278437) scale(0.1 -0.1)">
       <use xlink:href="#DejaVuSans-31"/>
       <use xlink:href="#DejaVuSans-36" x="63.623047"/>
      </g>
     </g>
    </g>
    <g id="xtick_18">
     <g id="line2d_18">
      <g>
       <use xlink:href="#m35ed82e259" x="487.761727" y="389.68" style="fill: #36525c; stroke: #36525c; stroke-width: 2"/>
      </g>
     </g>
     <g id="text_18">
      <!-- 17 -->
      <g transform="translate(481.399227 404.278437) scale(0.1 -0.1)">
       <use xlink:href="#DejaVuSans-31"/>
       <use xlink:href="#DejaVuSans-37" x="63.623047"/>
      </g>
     </g>
    </g>
    <g id="xtick_19">
     <g id="line2d_19">
      <g>
       <use xlink:href="#m35ed82e259" x="511.701" y="389.68" style="fill: #36525c; stroke: #36525c; stroke-width: 2"/>
      </g>
     </g>
     <g id="text_19">
      <!-- 18 -->
      <g transform="translate(505.3385 404.278437) scale(0.1 -0.1)">
       <use xlink:href="#DejaVuSans-31"/>
       <use xlink:href="#DejaVuSans-38" x="63.623047"/>
      </g>
     </g>
    </g>
    <g id="xtick_20">
     <g id="line2d_20">
      <g>
       <use xlink:href="#m35ed82e259" x="535.640273" y="389.68" style="fill: #36525c; stroke: #36525c; stroke-width: 2"/>
      </g>
     </g>
     <g id="text_20">
      <!-- 19 -->
      <g transform="translate(529.277773 404.278437) scale(0.1 -0.1)">
       <use xlink:href="#DejaVuSans-31"/>
       <use xlink:href="#DejaVuSans-39" x="63.623047"/>
      </g>
     </g>
    </g>
    <g id="xtick_21">
     <g id="line2d_21">
      <g>
       <use xlink:href="#m35ed82e259" x="559.579545" y="389.68" style="fill: #36525c; stroke: #36525c; stroke-width: 2"/>
      </g>
     </g>
     <g id="text_21">
      <!-- 20 -->
      <g transform="translate(553.217045 404.278437) scale(0.1 -0.1)">
       <use xlink:href="#DejaVuSans-32"/>
       <use xlink:href="#DejaVuSans-30" x="63.623047"/>
      </g>
     </g>
    </g>
    <g id="xtick_22">
     <g id="line2d_22">
      <g>
       <use xlink:href="#m35ed82e259" x="583.518818" y="389.68" style="fill: #36525c; stroke: #36525c; stroke-width: 2"/>
      </g>
     </g>
     <g id="text_22">
      <!-- 21 -->
      <g transform="translate(577.156318 404.278437) scale(0.1 -0.1)">
       <use xlink:href="#DejaVuSans-32"/>
       <use xlink:href="#DejaVuSans-31" x="63.623047"/>
      </g>
     </g>
    </g>
    <g id="xtick_23">
     <g id="line2d_23">
      <g>
       <use xlink:href="#m35ed82e259" x="607.458091" y="389.68" style="fill: #36525c; stroke: #36525c; stroke-width: 2"/>
      </g>
     </g>
     <g id="text_23">
      <!-- 22 -->
      <g transform="translate(601.095591 404.278437) scale(0.1 -0.1)">
       <use xlink:href="#DejaVuSans-32"/>
       <use xlink:href="#DejaVuSans-32" x="63.623047"/>
      </g>
     </g>
    </g>
    <g id="xtick_24">
     <g id="line2d_24">
      <g>
       <use xlink:href="#m35ed82e259" x="631.397364" y="389.68" style="fill: #36525c; stroke: #36525c; stroke-width: 2"/>
      </g>
     </g>
     <g id="text_24">
      <!-- 23 -->
      <g transform="translate(625.034864 404.278437) scale(0.1 -0.1)">
       <use xlink:href="#DejaVuSans-32"/>
       <use xlink:href="#DejaVuSans-33" x="63.623047"/>
      </g>
     </g>
    </g>
    <g id="xtick_25">
     <g id="line2d_25">
      <g>
       <use xlink:href="#m35ed82e259" x="655.336636" y="389.68" style="fill: #36525c; stroke: #36525c; stroke-width: 2"/>
      </g>
     </g>
     <g id="text_25">
      <!-- 24 -->
      <g transform="translate(648.974136 404.278437) scale(0.1 -0.1)">
       <use xlink:href="#DejaVuSans-32"/>
       <use xlink:href="#DejaVuSans-34" x="63.623047"/>
      </g>
     </g>
    </g>
    <g id="xtick_26">
     <g id="line2d_26">
      <g>
       <use xlink:href="#m35ed82e259" x="679.275909" y="389.68" style="fill: #36525c; stroke: #36525c; stroke-width: 2"/>
      </g>
     </g>
     <g id="text_26">
      <!-- 25 -->
      <g transform="translate(672.913409 404.278437) scale(0.1 -0.1)">
       <use xlink:href="#DejaVuSans-32"/>
       <use xlink:href="#DejaVuSans-35" x="63.623047"/>
      </g>
     </g>
    </g>
    <g id="text_27">
     <!-- Catégorie du mouvement -->
     <g transform="translate(315.956875 418.356562) scale(0.1 -0.1)">
      <defs>
       <path id="DejaVuSans-43" d="M 4122 4306 
L 4122 3641 
Q 3803 3938 3442 4084 
Q 3081 4231 2675 4231 
Q 1875 4231 1450 3742 
Q 1025 3253 1025 2328 
Q 1025 1406 1450 917 
Q 1875 428 2675 428 
Q 3081 428 3442 575 
Q 3803 722 4122 1019 
L 4122 359 
Q 3791 134 3420 21 
Q 3050 -91 2638 -91 
Q 1578 -91 968 557 
Q 359 1206 359 2328 
Q 359 3453 968 4101 
Q 1578 4750 2638 4750 
Q 3056 4750 3426 4639 
Q 3797 4528 4122 4306 
z
" transform="scale(0.015625)"/>
       <path id="DejaVuSans-61" d="M 2194 1759 
Q 1497 1759 1228 1600 
Q 959 1441 959 1056 
Q 959 750 1161 570 
Q 1363 391 1709 391 
Q 2188 391 2477 730 
Q 2766 1069 2766 1631 
L 2766 1759 
L 2194 1759 
z
M 3341 1997 
L 3341 0 
L 2766 0 
L 2766 531 
Q 2569 213 2275 61 
Q 1981 -91 1556 -91 
Q 1019 -91 701 211 
Q 384 513 384 1019 
Q 384 1609 779 1909 
Q 1175 2209 1959 2209 
L 2766 2209 
L 2766 2266 
Q 2766 2663 2505 2880 
Q 2244 3097 1772 3097 
Q 1472 3097 1187 3025 
Q 903 2953 641 2809 
L 641 3341 
Q 956 3463 1253 3523 
Q 1550 3584 1831 3584 
Q 2591 3584 2966 3190 
Q 3341 2797 3341 1997 
z
" transform="scale(0.015625)"/>
       <path id="DejaVuSans-74" d="M 1172 4494 
L 1172 3500 
L 2356 3500 
L 2356 3053 
L 1172 3053 
L 1172 1153 
Q 1172 725 1289 603 
Q 1406 481 1766 481 
L 2356 481 
L 2356 0 
L 1766 0 
Q 1100 0 847 248 
Q 594 497 594 1153 
L 594 3053 
L 172 3053 
L 172 3500 
L 594 3500 
L 594 4494 
L 1172 4494 
z
" transform="scale(0.015625)"/>
       <path id="DejaVuSans-e9" d="M 3597 1894 
L 3597 1613 
L 953 1613 
Q 991 1019 1311 708 
Q 1631 397 2203 397 
Q 2534 397 2845 478 
Q 3156 559 3463 722 
L 3463 178 
Q 3153 47 2828 -22 
Q 2503 -91 2169 -91 
Q 1331 -91 842 396 
Q 353 884 353 1716 
Q 353 2575 817 3079 
Q 1281 3584 2069 3584 
Q 2775 3584 3186 3129 
Q 3597 2675 3597 1894 
z
M 3022 2063 
Q 3016 2534 2758 2815 
Q 2500 3097 2075 3097 
Q 1594 3097 1305 2825 
Q 1016 2553 972 2059 
L 3022 2063 
z
M 2466 5119 
L 3088 5119 
L 2070 3944 
L 1591 3944 
L 2466 5119 
z
" transform="scale(0.015625)"/>
       <path id="DejaVuSans-67" d="M 2906 1791 
Q 2906 2416 2648 2759 
Q 2391 3103 1925 3103 
Q 1463 3103 1205 2759 
Q 947 2416 947 1791 
Q 947 1169 1205 825 
Q 1463 481 1925 481 
Q 2391 481 2648 825 
Q 2906 1169 2906 1791 
z
M 3481 434 
Q 3481 -459 3084 -895 
Q 2688 -1331 1869 -1331 
Q 1566 -1331 1297 -1286 
Q 1028 -1241 775 -1147 
L 775 -588 
Q 1028 -725 1275 -790 
Q 1522 -856 1778 -856 
Q 2344 -856 2625 -561 
Q 2906 -266 2906 331 
L 2906 616 
Q 2728 306 2450 153 
Q 2172 0 1784 0 
Q 1141 0 747 490 
Q 353 981 353 1791 
Q 353 2603 747 3093 
Q 1141 3584 1784 3584 
Q 2172 3584 2450 3431 
Q 2728 3278 2906 2969 
L 2906 3500 
L 3481 3500 
L 3481 434 
z
" transform="scale(0.015625)"/>
       <path id="DejaVuSans-6f" d="M 1959 3097 
Q 1497 3097 1228 2736 
Q 959 2375 959 1747 
Q 959 1119 1226 758 
Q 1494 397 1959 397 
Q 2419 397 2687 759 
Q 2956 1122 2956 1747 
Q 2956 2369 2687 2733 
Q 2419 3097 1959 3097 
z
M 1959 3584 
Q 2709 3584 3137 3096 
Q 3566 2609 3566 1747 
Q 3566 888 3137 398 
Q 2709 -91 1959 -91 
Q 1206 -91 779 398 
Q 353 888 353 1747 
Q 353 2609 779 3096 
Q 1206 3584 1959 3584 
z
" transform="scale(0.015625)"/>
       <path id="DejaVuSans-72" d="M 2631 2963 
Q 2534 3019 2420 3045 
Q 2306 3072 2169 3072 
Q 1681 3072 1420 2755 
Q 1159 2438 1159 1844 
L 1159 0 
L 581 0 
L 581 3500 
L 1159 3500 
L 1159 2956 
Q 1341 3275 1631 3429 
Q 1922 3584 2338 3584 
Q 2397 3584 2469 3576 
Q 2541 3569 2628 3553 
L 2631 2963 
z
" transform="scale(0.015625)"/>
       <path id="DejaVuSans-69" d="M 603 3500 
L 1178 3500 
L 1178 0 
L 603 0 
L 603 3500 
z
M 603 4863 
L 1178 4863 
L 1178 4134 
L 603 4134 
L 603 4863 
z
" transform="scale(0.015625)"/>
       <path id="DejaVuSans-65" d="M 3597 1894 
L 3597 1613 
L 953 1613 
Q 991 1019 1311 708 
Q 1631 397 2203 397 
Q 2534 397 2845 478 
Q 3156 559 3463 722 
L 3463 178 
Q 3153 47 2828 -22 
Q 2503 -91 2169 -91 
Q 1331 -91 842 396 
Q 353 884 353 1716 
Q 353 2575 817 3079 
Q 1281 3584 2069 3584 
Q 2775 3584 3186 3129 
Q 3597 2675 3597 1894 
z
M 3022 2063 
Q 3016 2534 2758 2815 
Q 2500 3097 2075 3097 
Q 1594 3097 1305 2825 
Q 1016 2553 972 2059 
L 3022 2063 
z
" transform="scale(0.015625)"/>
       <path id="DejaVuSans-20" transform="scale(0.015625)"/>
       <path id="DejaVuSans-64" d="M 2906 2969 
L 2906 4863 
L 3481 4863 
L 3481 0 
L 2906 0 
L 2906 525 
Q 2725 213 2448 61 
Q 2172 -91 1784 -91 
Q 1150 -91 751 415 
Q 353 922 353 1747 
Q 353 2572 751 3078 
Q 1150 3584 1784 3584 
Q 2172 3584 2448 3432 
Q 2725 3281 2906 2969 
z
M 947 1747 
Q 947 1113 1208 752 
Q 1469 391 1925 391 
Q 2381 391 2643 752 
Q 2906 1113 2906 1747 
Q 2906 2381 2643 2742 
Q 2381 3103 1925 3103 
Q 1469 3103 1208 2742 
Q 947 2381 947 1747 
z
" transform="scale(0.015625)"/>
       <path id="DejaVuSans-75" d="M 544 1381 
L 544 3500 
L 1119 3500 
L 1119 1403 
Q 1119 906 1312 657 
Q 1506 409 1894 409 
Q 2359 409 2629 706 
Q 2900 1003 2900 1516 
L 2900 3500 
L 3475 3500 
L 3475 0 
L 2900 0 
L 2900 538 
Q 2691 219 2414 64 
Q 2138 -91 1772 -91 
Q 1169 -91 856 284 
Q 544 659 544 1381 
z
M 1991 3584 
L 1991 3584 
z
" transform="scale(0.015625)"/>
       <path id="DejaVuSans-6d" d="M 3328 2828 
Q 3544 3216 3844 3400 
Q 4144 3584 4550 3584 
Q 5097 3584 5394 3201 
Q 5691 2819 5691 2113 
L 5691 0 
L 5113 0 
L 5113 2094 
Q 5113 2597 4934 2840 
Q 4756 3084 4391 3084 
Q 3944 3084 3684 2787 
Q 3425 2491 3425 1978 
L 3425 0 
L 2847 0 
L 2847 2094 
Q 2847 2600 2669 2842 
Q 2491 3084 2119 3084 
Q 1678 3084 1418 2786 
Q 1159 2488 1159 1978 
L 1159 0 
L 581 0 
L 581 3500 
L 1159 3500 
L 1159 2956 
Q 1356 3278 1631 3431 
Q 1906 3584 2284 3584 
Q 2666 3584 2933 3390 
Q 3200 3197 3328 2828 
z
" transform="scale(0.015625)"/>
       <path id="DejaVuSans-76" d="M 191 3500 
L 800 3500 
L 1894 563 
L 2988 3500 
L 3597 3500 
L 2284 0 
L 1503 0 
L 191 3500 
z
" transform="scale(0.015625)"/>
       <path id="DejaVuSans-6e" d="M 3513 2113 
L 3513 0 
L 2938 0 
L 2938 2094 
Q 2938 2591 2744 2837 
Q 2550 3084 2163 3084 
Q 1697 3084 1428 2787 
Q 1159 2491 1159 1978 
L 1159 0 
L 581 0 
L 581 3500 
L 1159 3500 
L 1159 2956 
Q 1366 3272 1645 3428 
Q 1925 3584 2291 3584 
Q 2894 3584 3203 3211 
Q 3513 2838 3513 2113 
z
" transform="scale(0.015625)"/>
      </defs>
      <use xlink:href="#DejaVuSans-43"/>
      <use xlink:href="#DejaVuSans-61" x="69.824219"/>
      <use xlink:href="#DejaVuSans-74" x="131.103516"/>
      <use xlink:href="#DejaVuSans-e9" x="170.3125"/>
      <use xlink:href="#DejaVuSans-67" x="231.835938"/>
      <use xlink:href="#DejaVuSans-6f" x="295.3125"/>
      <use xlink:href="#DejaVuSans-72" x="356.494141"/>
      <use xlink:href="#DejaVuSans-69" x="397.607422"/>
      <use xlink:href="#DejaVuSans-65" x="425.390625"/>
      <use xlink:href="#DejaVuSans-20" x="486.914062"/>
      <use xlink:href="#DejaVuSans-64" x="518.701172"/>
      <use xlink:href="#DejaVuSans-75" x="582.177734"/>
      <use xlink:href="#DejaVuSans-20" x="645.556641"/>
      <use xlink:href="#DejaVuSans-6d" x="677.34375"/>
      <use xlink:href="#DejaVuSans-6f" x="774.755859"/>
      <use xlink:href="#DejaVuSans-75" x="835.9375"/>
      <use xlink:href="#DejaVuSans-76" x="899.316406"/>
      <use xlink:href="#DejaVuSans-65" x="958.496094"/>
      <use xlink:href="#DejaVuSans-6d" x="1020.019531"/>
      <use xlink:href="#DejaVuSans-65" x="1117.431641"/>
      <use xlink:href="#DejaVuSans-6e" x="1178.955078"/>
      <use xlink:href="#DejaVuSans-74" x="1242.333984"/>
     </g>
    </g>
   </g>
   <g id="matplotlib.axis_2">
    <g id="ytick_1">
     <g id="line2d_27">
      <defs>
       <path id="me74a6b53c1" d="M 0 0 
L -3.5 0 
" style="stroke: #36525c; stroke-width: 2"/>
      </defs>
      <g>
       <use xlink:href="#me74a6b53c1" x="50.87" y="316.088091" style="fill: #36525c; stroke: #36525c; stroke-width: 2"/>
      </g>
     </g>
     <g id="text_28">
      <!-- 20 -->
      <g transform="translate(31.145 319.88731) scale(0.1 -0.1)">
       <use xlink:href="#DejaVuSans-32"/>
       <use xlink:href="#DejaVuSans-30" x="63.623047"/>
      </g>
     </g>
    </g>
    <g id="ytick_2">
     <g id="line2d_28">
      <g>
       <use xlink:href="#me74a6b53c1" x="50.87" y="240.841228" style="fill: #36525c; stroke: #36525c; stroke-width: 2"/>
      </g>
     </g>
     <g id="text_29">
      <!-- 40 -->
      <g transform="translate(31.145 244.640447) scale(0.1 -0.1)">
       <use xlink:href="#DejaVuSans-34"/>
       <use xlink:href="#DejaVuSans-30" x="63.623047"/>
      </g>
     </g>
    </g>
    <g id="ytick_3">
     <g id="line2d_29">
      <g>
       <use xlink:href="#me74a6b53c1" x="50.87" y="165.594365" style="fill: #36525c; stroke: #36525c; stroke-width: 2"/>
      </g>
     </g>
     <g id="text_30">
      <!-- 60 -->
      <g transform="translate(31.145 169.393583) scale(0.1 -0.1)">
       <use xlink:href="#DejaVuSans-36"/>
       <use xlink:href="#DejaVuSans-30" x="63.623047"/>
      </g>
     </g>
    </g>
    <g id="ytick_4">
     <g id="line2d_30">
      <g>
       <use xlink:href="#me74a6b53c1" x="50.87" y="90.347501" style="fill: #36525c; stroke: #36525c; stroke-width: 2"/>
      </g>
     </g>
     <g id="text_31">
      <!-- 80 -->
      <g transform="translate(31.145 94.14672) scale(0.1 -0.1)">
       <use xlink:href="#DejaVuSans-38"/>
       <use xlink:href="#DejaVuSans-30" x="63.623047"/>
      </g>
     </g>
    </g>
    <g id="ytick_5">
     <g id="line2d_31">
      <g>
       <use xlink:href="#me74a6b53c1" x="50.87" y="15.100638" style="fill: #36525c; stroke: #36525c; stroke-width: 2"/>
      </g>
     </g>
     <g id="text_32">
      <!-- 100 -->
      <g transform="translate(24.7825 18.899857) scale(0.1 -0.1)">
       <use xlink:href="#DejaVuSans-31"/>
       <use xlink:href="#DejaVuSans-30" x="63.623047"/>
       <use xlink:href="#DejaVuSans-30" x="127.246094"/>
      </g>
     </g>
    </g>
    <g id="text_33">
     <!-- Précision (%) -->
     <g transform="translate(18.702813 233.504066) rotate(-90) scale(0.1 -0.1)">
      <defs>
       <path id="DejaVuSans-50" d="M 1259 4147 
L 1259 2394 
L 2053 2394 
Q 2494 2394 2734 2622 
Q 2975 2850 2975 3272 
Q 2975 3691 2734 3919 
Q 2494 4147 2053 4147 
L 1259 4147 
z
M 628 4666 
L 2053 4666 
Q 2838 4666 3239 4311 
Q 3641 3956 3641 3272 
Q 3641 2581 3239 2228 
Q 2838 1875 2053 1875 
L 1259 1875 
L 1259 0 
L 628 0 
L 628 4666 
z
" transform="scale(0.015625)"/>
       <path id="DejaVuSans-63" d="M 3122 3366 
L 3122 2828 
Q 2878 2963 2633 3030 
Q 2388 3097 2138 3097 
Q 1578 3097 1268 2742 
Q 959 2388 959 1747 
Q 959 1106 1268 751 
Q 1578 397 2138 397 
Q 2388 397 2633 464 
Q 2878 531 3122 666 
L 3122 134 
Q 2881 22 2623 -34 
Q 2366 -91 2075 -91 
Q 1284 -91 818 406 
Q 353 903 353 1747 
Q 353 2603 823 3093 
Q 1294 3584 2113 3584 
Q 2378 3584 2631 3529 
Q 2884 3475 3122 3366 
z
" transform="scale(0.015625)"/>
       <path id="DejaVuSans-73" d="M 2834 3397 
L 2834 2853 
Q 2591 2978 2328 3040 
Q 2066 3103 1784 3103 
Q 1356 3103 1142 2972 
Q 928 2841 928 2578 
Q 928 2378 1081 2264 
Q 1234 2150 1697 2047 
L 1894 2003 
Q 2506 1872 2764 1633 
Q 3022 1394 3022 966 
Q 3022 478 2636 193 
Q 2250 -91 1575 -91 
Q 1294 -91 989 -36 
Q 684 19 347 128 
L 347 722 
Q 666 556 975 473 
Q 1284 391 1588 391 
Q 1994 391 2212 530 
Q 2431 669 2431 922 
Q 2431 1156 2273 1281 
Q 2116 1406 1581 1522 
L 1381 1569 
Q 847 1681 609 1914 
Q 372 2147 372 2553 
Q 372 3047 722 3315 
Q 1072 3584 1716 3584 
Q 2034 3584 2315 3537 
Q 2597 3491 2834 3397 
z
" transform="scale(0.015625)"/>
       <path id="DejaVuSans-28" d="M 1984 4856 
Q 1566 4138 1362 3434 
Q 1159 2731 1159 2009 
Q 1159 1288 1364 580 
Q 1569 -128 1984 -844 
L 1484 -844 
Q 1016 -109 783 600 
Q 550 1309 550 2009 
Q 550 2706 781 3412 
Q 1013 4119 1484 4856 
L 1984 4856 
z
" transform="scale(0.015625)"/>
       <path id="DejaVuSans-25" d="M 4653 2053 
Q 4381 2053 4226 1822 
Q 4072 1591 4072 1178 
Q 4072 772 4226 539 
Q 4381 306 4653 306 
Q 4919 306 5073 539 
Q 5228 772 5228 1178 
Q 5228 1588 5073 1820 
Q 4919 2053 4653 2053 
z
M 4653 2450 
Q 5147 2450 5437 2106 
Q 5728 1763 5728 1178 
Q 5728 594 5436 251 
Q 5144 -91 4653 -91 
Q 4153 -91 3862 251 
Q 3572 594 3572 1178 
Q 3572 1766 3864 2108 
Q 4156 2450 4653 2450 
z
M 1428 4353 
Q 1159 4353 1004 4120 
Q 850 3888 850 3481 
Q 850 3069 1003 2837 
Q 1156 2606 1428 2606 
Q 1700 2606 1854 2837 
Q 2009 3069 2009 3481 
Q 2009 3884 1853 4118 
Q 1697 4353 1428 4353 
z
M 4250 4750 
L 4750 4750 
L 1831 -91 
L 1331 -91 
L 4250 4750 
z
M 1428 4750 
Q 1922 4750 2215 4408 
Q 2509 4066 2509 3481 
Q 2509 2891 2217 2550 
Q 1925 2209 1428 2209 
Q 931 2209 642 2551 
Q 353 2894 353 3481 
Q 353 4063 643 4406 
Q 934 4750 1428 4750 
z
" transform="scale(0.015625)"/>
       <path id="DejaVuSans-29" d="M 513 4856 
L 1013 4856 
Q 1481 4119 1714 3412 
Q 1947 2706 1947 2009 
Q 1947 1309 1714 600 
Q 1481 -109 1013 -844 
L 513 -844 
Q 928 -128 1133 580 
Q 1338 1288 1338 2009 
Q 1338 2731 1133 3434 
Q 928 4138 513 4856 
z
" transform="scale(0.015625)"/>
      </defs>
      <use xlink:href="#DejaVuSans-50"/>
      <use xlink:href="#DejaVuSans-72" x="58.552734"/>
      <use xlink:href="#DejaVuSans-e9" x="97.416016"/>
      <use xlink:href="#DejaVuSans-63" x="158.939453"/>
      <use xlink:href="#DejaVuSans-69" x="213.919922"/>
      <use xlink:href="#DejaVuSans-73" x="241.703125"/>
      <use xlink:href="#DejaVuSans-69" x="293.802734"/>
      <use xlink:href="#DejaVuSans-6f" x="321.585938"/>
      <use xlink:href="#DejaVuSans-6e" x="382.767578"/>
      <use xlink:href="#DejaVuSans-20" x="446.146484"/>
      <use xlink:href="#DejaVuSans-28" x="477.933594"/>
      <use xlink:href="#DejaVuSans-25" x="516.947266"/>
      <use xlink:href="#DejaVuSans-29" x="611.966797"/>
     </g>
    </g>
   </g>
   <g id="line2d_32">
    <path d="M 80.794091 302.560565 
L 104.733364 318.279748 
L 128.672636 257.832455 
L 152.611909 225.791855 
L 176.551182 259.652944 
L 200.490455 255.250202 
L 224.429727 257.482361 
L 248.369 298.207649 
L 272.308273 257.63185 
L 296.247545 242.331265 
L 320.186818 201.004653 
L 344.126091 256.276482 
L 368.065364 261.811665 
L 392.004636 307.558083 
L 415.943909 226.508492 
L 439.883182 268.982331 
L 463.822455 169.22072 
L 487.761727 276.092011 
L 511.701 220.013971 
L 535.640273 236.414942 
L 559.579545 154.60325 
L 583.518818 216.51901 
L 607.458091 255.112185 
L 631.397364 260.804682 
L 655.336636 219.939322 
L 679.275909 278.816281 
" clip-path="url(#p0de81e74f2)" style="fill: none; stroke-dasharray: 3.7,1.6; stroke-dashoffset: 0; stroke: #1f77b4"/>
    <defs>
     <path id="me7c6acc118" d="M 0 3 
C 0.795609 3 1.55874 2.683901 2.12132 2.12132 
C 2.683901 1.55874 3 0.795609 3 0 
C 3 -0.795609 2.683901 -1.55874 2.12132 -2.12132 
C 1.55874 -2.683901 0.795609 -3 0 -3 
C -0.795609 -3 -1.55874 -2.683901 -2.12132 -2.12132 
C -2.683901 -1.55874 -3 -0.795609 -3 0 
C -3 0.795609 -2.683901 1.55874 -2.12132 2.12132 
C -1.55874 2.683901 -0.795609 3 0 3 
z
" style="stroke: #1f77b4"/>
    </defs>
    <g clip-path="url(#p0de81e74f2)">
     <use xlink:href="#me7c6acc118" x="80.794091" y="302.560565" style="fill: #1f77b4; stroke: #1f77b4"/>
     <use xlink:href="#me7c6acc118" x="104.733364" y="318.279748" style="fill: #1f77b4; stroke: #1f77b4"/>
     <use xlink:href="#me7c6acc118" x="128.672636" y="257.832455" style="fill: #1f77b4; stroke: #1f77b4"/>
     <use xlink:href="#me7c6acc118" x="152.611909" y="225.791855" style="fill: #1f77b4; stroke: #1f77b4"/>
     <use xlink:href="#me7c6acc118" x="176.551182" y="259.652944" style="fill: #1f77b4; stroke: #1f77b4"/>
     <use xlink:href="#me7c6acc118" x="200.490455" y="255.250202" style="fill: #1f77b4; stroke: #1f77b4"/>
     <use xlink:href="#me7c6acc118" x="224.429727" y="257.482361" style="fill: #1f77b4; stroke: #1f77b4"/>
     <use xlink:href="#me7c6acc118" x="248.369" y="298.207649" style="fill: #1f77b4; stroke: #1f77b4"/>
     <use xlink:href="#me7c6acc118" x="272.308273" y="257.63185" style="fill: #1f77b4; stroke: #1f77b4"/>
     <use xlink:href="#me7c6acc118" x="296.247545" y="242.331265" style="fill: #1f77b4; stroke: #1f77b4"/>
     <use xlink:href="#me7c6acc118" x="320.186818" y="201.004653" style="fill: #1f77b4; stroke: #1f77b4"/>
     <use xlink:href="#me7c6acc118" x="344.126091" y="256.276482" style="fill: #1f77b4; stroke: #1f77b4"/>
     <use xlink:href="#me7c6acc118" x="368.065364" y="261.811665" style="fill: #1f77b4; stroke: #1f77b4"/>
     <use xlink:href="#me7c6acc118" x="392.004636" y="307.558083" style="fill: #1f77b4; stroke: #1f77b4"/>
     <use xlink:href="#me7c6acc118" x="415.943909" y="226.508492" style="fill: #1f77b4; stroke: #1f77b4"/>
     <use xlink:href="#me7c6acc118" x="439.883182" y="268.982331" style="fill: #1f77b4; stroke: #1f77b4"/>
     <use xlink:href="#me7c6acc118" x="463.822455" y="169.22072" style="fill: #1f77b4; stroke: #1f77b4"/>
     <use xlink:href="#me7c6acc118" x="487.761727" y="276.092011" style="fill: #1f77b4; stroke: #1f77b4"/>
     <use xlink:href="#me7c6acc118" x="511.701" y="220.013971" style="fill: #1f77b4; stroke: #1f77b4"/>
     <use xlink:href="#me7c6acc118" x="535.640273" y="236.414942" style="fill: #1f77b4; stroke: #1f77b4"/>
     <use xlink:href="#me7c6acc118" x="559.579545" y="154.60325" style="fill: #1f77b4; stroke: #1f77b4"/>
     <use xlink:href="#me7c6acc118" x="583.518818" y="216.51901" style="fill: #1f77b4; stroke: #1f77b4"/>
     <use xlink:href="#me7c6acc118" x="607.458091" y="255.112185" style="fill: #1f77b4; stroke: #1f77b4"/>
     <use xlink:href="#me7c6acc118" x="631.397364" y="260.804682" style="fill: #1f77b4; stroke: #1f77b4"/>
     <use xlink:href="#me7c6acc118" x="655.336636" y="219.939322" style="fill: #1f77b4; stroke: #1f77b4"/>
     <use xlink:href="#me7c6acc118" x="679.275909" y="278.816281" style="fill: #1f77b4; stroke: #1f77b4"/>
    </g>
   </g>
   <g id="line2d_33">
    <path d="M 80.794091 285.725322 
L 104.733364 319.553407 
L 128.672636 259.032777 
L 152.611909 287.001069 
L 176.551182 252.581873 
L 200.490455 280.44484 
L 224.429727 295.501685 
L 248.369 253.186417 
L 272.308273 224.805011 
L 296.247545 264.681818 
L 320.186818 281.059379 
L 344.126091 280.174816 
L 368.065364 282.332489 
L 392.004636 246.056357 
L 415.943909 262.261868 
L 439.883182 283.422786 
L 463.822455 230.613499 
L 487.761727 274.354537 
L 511.701 261.91035 
L 535.640273 214.668406 
L 559.579545 270.402496 
L 583.518818 267.979441 
L 607.458091 279.85812 
L 631.397364 282.105637 
L 655.336636 250.247086 
L 679.275909 228.300084 
" clip-path="url(#p0de81e74f2)" style="fill: none; stroke-dasharray: 3.7,1.6; stroke-dashoffset: 0; stroke: #ff7f0e"/>
    <defs>
     <path id="m471a2b7968" d="M 0 3 
C 0.795609 3 1.55874 2.683901 2.12132 2.12132 
C 2.683901 1.55874 3 0.795609 3 0 
C 3 -0.795609 2.683901 -1.55874 2.12132 -2.12132 
C 1.55874 -2.683901 0.795609 -3 0 -3 
C -0.795609 -3 -1.55874 -2.683901 -2.12132 -2.12132 
C -2.683901 -1.55874 -3 -0.795609 -3 0 
C -3 0.795609 -2.683901 1.55874 -2.12132 2.12132 
C -1.55874 2.683901 -0.795609 3 0 3 
z
" style="stroke: #ff7f0e"/>
    </defs>
    <g clip-path="url(#p0de81e74f2)">
     <use xlink:href="#m471a2b7968" x="80.794091" y="285.725322" style="fill: #ff7f0e; stroke: #ff7f0e"/>
     <use xlink:href="#m471a2b7968" x="104.733364" y="319.553407" style="fill: #ff7f0e; stroke: #ff7f0e"/>
     <use xlink:href="#m471a2b7968" x="128.672636" y="259.032777" style="fill: #ff7f0e; stroke: #ff7f0e"/>
     <use xlink:href="#m471a2b7968" x="152.611909" y="287.001069" style="fill: #ff7f0e; stroke: #ff7f0e"/>
     <use xlink:href="#m471a2b7968" x="176.551182" y="252.581873" style="fill: #ff7f0e; stroke: #ff7f0e"/>
     <use xlink:href="#m471a2b7968" x="200.490455" y="280.44484" style="fill: #ff7f0e; stroke: #ff7f0e"/>
     <use xlink:href="#m471a2b7968" x="224.429727" y="295.501685" style="fill: #ff7f0e; stroke: #ff7f0e"/>
     <use xlink:href="#m471a2b7968" x="248.369" y="253.186417" style="fill: #ff7f0e; stroke: #ff7f0e"/>
     <use xlink:href="#m471a2b7968" x="272.308273" y="224.805011" style="fill: #ff7f0e; stroke: #ff7f0e"/>
     <use xlink:href="#m471a2b7968" x="296.247545" y="264.681818" style="fill: #ff7f0e; stroke: #ff7f0e"/>
     <use xlink:href="#m471a2b7968" x="320.186818" y="281.059379" style="fill: #ff7f0e; stroke: #ff7f0e"/>
     <use xlink:href="#m471a2b7968" x="344.126091" y="280.174816" style="fill: #ff7f0e; stroke: #ff7f0e"/>
     <use xlink:href="#m471a2b7968" x="368.065364" y="282.332489" style="fill: #ff7f0e; stroke: #ff7f0e"/>
     <use xlink:href="#m471a2b7968" x="392.004636" y="246.056357" style="fill: #ff7f0e; stroke: #ff7f0e"/>
     <use xlink:href="#m471a2b7968" x="415.943909" y="262.261868" style="fill: #ff7f0e; stroke: #ff7f0e"/>
     <use xlink:href="#m471a2b7968" x="439.883182" y="283.422786" style="fill: #ff7f0e; stroke: #ff7f0e"/>
     <use xlink:href="#m471a2b7968" x="463.822455" y="230.613499" style="fill: #ff7f0e; stroke: #ff7f0e"/>
     <use xlink:href="#m471a2b7968" x="487.761727" y="274.354537" style="fill: #ff7f0e; stroke: #ff7f0e"/>
     <use xlink:href="#m471a2b7968" x="511.701" y="261.91035" style="fill: #ff7f0e; stroke: #ff7f0e"/>
     <use xlink:href="#m471a2b7968" x="535.640273" y="214.668406" style="fill: #ff7f0e; stroke: #ff7f0e"/>
     <use xlink:href="#m471a2b7968" x="559.579545" y="270.402496" style="fill: #ff7f0e; stroke: #ff7f0e"/>
     <use xlink:href="#m471a2b7968" x="583.518818" y="267.979441" style="fill: #ff7f0e; stroke: #ff7f0e"/>
     <use xlink:href="#m471a2b7968" x="607.458091" y="279.85812" style="fill: #ff7f0e; stroke: #ff7f0e"/>
     <use xlink:href="#m471a2b7968" x="631.397364" y="282.105637" style="fill: #ff7f0e; stroke: #ff7f0e"/>
     <use xlink:href="#m471a2b7968" x="655.336636" y="250.247086" style="fill: #ff7f0e; stroke: #ff7f0e"/>
     <use xlink:href="#m471a2b7968" x="679.275909" y="228.300084" style="fill: #ff7f0e; stroke: #ff7f0e"/>
    </g>
   </g>
   <g id="line2d_34">
    <path d="M 80.794091 236.880867 
L 104.733364 250.247086 
L 128.672636 225.612696 
L 152.611909 228.639034 
L 176.551182 219.772106 
L 200.490455 229.513743 
L 224.429727 244.603571 
L 248.369 211.691542 
L 272.308273 210.509159 
L 296.247545 252.722312 
L 320.186818 270.939973 
L 344.126091 219.719302 
L 368.065364 262.094159 
L 392.004636 268.143187 
L 415.943909 240.22445 
L 439.883182 233.766737 
L 463.822455 218.470539 
L 487.761727 204.88255 
L 511.701 211.847024 
L 535.640273 178.680776 
L 559.579545 186.421622 
L 583.518818 216.419 
L 607.458091 247.064653 
L 631.397364 280.44484 
L 655.336636 193.521036 
L 679.275909 189.916583 
" clip-path="url(#p0de81e74f2)" style="fill: none; stroke-dasharray: 3.7,1.6; stroke-dashoffset: 0; stroke: #2ca02c"/>
    <defs>
     <path id="m1899baaa0d" d="M 0 3 
C 0.795609 3 1.55874 2.683901 2.12132 2.12132 
C 2.683901 1.55874 3 0.795609 3 0 
C 3 -0.795609 2.683901 -1.55874 2.12132 -2.12132 
C 1.55874 -2.683901 0.795609 -3 0 -3 
C -0.795609 -3 -1.55874 -2.683901 -2.12132 -2.12132 
C -2.683901 -1.55874 -3 -0.795609 -3 0 
C -3 0.795609 -2.683901 1.55874 -2.12132 2.12132 
C -1.55874 2.683901 -0.795609 3 0 3 
z
" style="stroke: #2ca02c"/>
    </defs>
    <g clip-path="url(#p0de81e74f2)">
     <use xlink:href="#m1899baaa0d" x="80.794091" y="236.880867" style="fill: #2ca02c; stroke: #2ca02c"/>
     <use xlink:href="#m1899baaa0d" x="104.733364" y="250.247086" style="fill: #2ca02c; stroke: #2ca02c"/>
     <use xlink:href="#m1899baaa0d" x="128.672636" y="225.612696" style="fill: #2ca02c; stroke: #2ca02c"/>
     <use xlink:href="#m1899baaa0d" x="152.611909" y="228.639034" style="fill: #2ca02c; stroke: #2ca02c"/>
     <use xlink:href="#m1899baaa0d" x="176.551182" y="219.772106" style="fill: #2ca02c; stroke: #2ca02c"/>
     <use xlink:href="#m1899baaa0d" x="200.490455" y="229.513743" style="fill: #2ca02c; stroke: #2ca02c"/>
     <use xlink:href="#m1899baaa0d" x="224.429727" y="244.603571" style="fill: #2ca02c; stroke: #2ca02c"/>
     <use xlink:href="#m1899baaa0d" x="248.369" y="211.691542" style="fill: #2ca02c; stroke: #2ca02c"/>
     <use xlink:href="#m1899baaa0d" x="272.308273" y="210.509159" style="fill: #2ca02c; stroke: #2ca02c"/>
     <use xlink:href="#m1899baaa0d" x="296.247545" y="252.722312" style="fill: #2ca02c; stroke: #2ca02c"/>
     <use xlink:href="#m1899baaa0d" x="320.186818" y="270.939973" style="fill: #2ca02c; stroke: #2ca02c"/>
     <use xlink:href="#m1899baaa0d" x="344.126091" y="219.719302" style="fill: #2ca02c; stroke: #2ca02c"/>
     <use xlink:href="#m1899baaa0d" x="368.065364" y="262.094159" style="fill: #2ca02c; stroke: #2ca02c"/>
     <use xlink:href="#m1899baaa0d" x="392.004636" y="268.143187" style="fill: #2ca02c; stroke: #2ca02c"/>
     <use xlink:href="#m1899baaa0d" x="415.943909" y="240.22445" style="fill: #2ca02c; stroke: #2ca02c"/>
     <use xlink:href="#m1899baaa0d" x="439.883182" y="233.766737" style="fill: #2ca02c; stroke: #2ca02c"/>
     <use xlink:href="#m1899baaa0d" x="463.822455" y="218.470539" style="fill: #2ca02c; stroke: #2ca02c"/>
     <use xlink:href="#m1899baaa0d" x="487.761727" y="204.88255" style="fill: #2ca02c; stroke: #2ca02c"/>
     <use xlink:href="#m1899baaa0d" x="511.701" y="211.847024" style="fill: #2ca02c; stroke: #2ca02c"/>
     <use xlink:href="#m1899baaa0d" x="535.640273" y="178.680776" style="fill: #2ca02c; stroke: #2ca02c"/>
     <use xlink:href="#m1899baaa0d" x="559.579545" y="186.421622" style="fill: #2ca02c; stroke: #2ca02c"/>
     <use xlink:href="#m1899baaa0d" x="583.518818" y="216.419" style="fill: #2ca02c; stroke: #2ca02c"/>
     <use xlink:href="#m1899baaa0d" x="607.458091" y="247.064653" style="fill: #2ca02c; stroke: #2ca02c"/>
     <use xlink:href="#m1899baaa0d" x="631.397364" y="280.44484" style="fill: #2ca02c; stroke: #2ca02c"/>
     <use xlink:href="#m1899baaa0d" x="655.336636" y="193.521036" style="fill: #2ca02c; stroke: #2ca02c"/>
     <use xlink:href="#m1899baaa0d" x="679.275909" y="189.916583" style="fill: #2ca02c; stroke: #2ca02c"/>
    </g>
   </g>
   <g id="line2d_35">
    <path d="M 80.794091 68.848398 
L 104.733364 38.041755 
L 128.672636 37.902718 
L 152.611909 40.182926 
L 176.551182 87.145507 
L 200.490455 55.411458 
L 224.429727 104.680237 
L 248.369 86.96562 
L 272.308273 55.995672 
L 296.247545 51.806425 
L 320.186818 70.281671 
L 344.126091 29.388017 
L 368.065364 36.7233 
L 392.004636 125.75779 
L 415.943909 136.71173 
L 439.883182 85.38617 
L 463.822455 94.773787 
L 487.761727 82.738268 
L 511.701 81.494929 
L 535.640273 61.170146 
L 559.579545 112.92156 
L 583.518818 55.89713 
L 607.458091 32.805782 
L 631.397364 100.380416 
L 655.336636 34.645278 
L 679.275909 76.348085 
" clip-path="url(#p0de81e74f2)" style="fill: none; stroke-dasharray: 3.7,1.6; stroke-dashoffset: 0; stroke: #d62728"/>
    <defs>
     <path id="m17b3d897bf" d="M 0 3 
C 0.795609 3 1.55874 2.683901 2.12132 2.12132 
C 2.683901 1.55874 3 0.795609 3 0 
C 3 -0.795609 2.683901 -1.55874 2.12132 -2.12132 
C 1.55874 -2.683901 0.795609 -3 0 -3 
C -0.795609 -3 -1.55874 -2.683901 -2.12132 -2.12132 
C -2.683901 -1.55874 -3 -0.795609 -3 0 
C -3 0.795609 -2.683901 1.55874 -2.12132 2.12132 
C -1.55874 2.683901 -0.795609 3 0 3 
z
" style="stroke: #d62728"/>
    </defs>
    <g clip-path="url(#p0de81e74f2)">
     <use xlink:href="#m17b3d897bf" x="80.794091" y="68.848398" style="fill: #d62728; stroke: #d62728"/>
     <use xlink:href="#m17b3d897bf" x="104.733364" y="38.041755" style="fill: #d62728; stroke: #d62728"/>
     <use xlink:href="#m17b3d897bf" x="128.672636" y="37.902718" style="fill: #d62728; stroke: #d62728"/>
     <use xlink:href="#m17b3d897bf" x="152.611909" y="40.182926" style="fill: #d62728; stroke: #d62728"/>
     <use xlink:href="#m17b3d897bf" x="176.551182" y="87.145507" style="fill: #d62728; stroke: #d62728"/>
     <use xlink:href="#m17b3d897bf" x="200.490455" y="55.411458" style="fill: #d62728; stroke: #d62728"/>
     <use xlink:href="#m17b3d897bf" x="224.429727" y="104.680237" style="fill: #d62728; stroke: #d62728"/>
     <use xlink:href="#m17b3d897bf" x="248.369" y="86.96562" style="fill: #d62728; stroke: #d62728"/>
     <use xlink:href="#m17b3d897bf" x="272.308273" y="55.995672" style="fill: #d62728; stroke: #d62728"/>
     <use xlink:href="#m17b3d897bf" x="296.247545" y="51.806425" style="fill: #d62728; stroke: #d62728"/>
     <use xlink:href="#m17b3d897bf" x="320.186818" y="70.281671" style="fill: #d62728; stroke: #d62728"/>
     <use xlink:href="#m17b3d897bf" x="344.126091" y="29.388017" style="fill: #d62728; stroke: #d62728"/>
     <use xlink:href="#m17b3d897bf" x="368.065364" y="36.7233" style="fill: #d62728; stroke: #d62728"/>
     <use xlink:href="#m17b3d897bf" x="392.004636" y="125.75779" style="fill: #d62728; stroke: #d62728"/>
     <use xlink:href="#m17b3d897bf" x="415.943909" y="136.71173" style="fill: #d62728; stroke: #d62728"/>
     <use xlink:href="#m17b3d897bf" x="439.883182" y="85.38617" style="fill: #d62728; stroke: #d62728"/>
     <use xlink:href="#m17b3d897bf" x="463.822455" y="94.773787" style="fill: #d62728; stroke: #d62728"/>
     <use xlink:href="#m17b3d897bf" x="487.761727" y="82.738268" style="fill: #d62728; stroke: #d62728"/>
     <use xlink:href="#m17b3d897bf" x="511.701" y="81.494929" style="fill: #d62728; stroke: #d62728"/>
     <use xlink:href="#m17b3d897bf" x="535.640273" y="61.170146" style="fill: #d62728; stroke: #d62728"/>
     <use xlink:href="#m17b3d897bf" x="559.579545" y="112.92156" style="fill: #d62728; stroke: #d62728"/>
     <use xlink:href="#m17b3d897bf" x="583.518818" y="55.89713" style="fill: #d62728; stroke: #d62728"/>
     <use xlink:href="#m17b3d897bf" x="607.458091" y="32.805782" style="fill: #d62728; stroke: #d62728"/>
     <use xlink:href="#m17b3d897bf" x="631.397364" y="100.380416" style="fill: #d62728; stroke: #d62728"/>
     <use xlink:href="#m17b3d897bf" x="655.336636" y="34.645278" style="fill: #d62728; stroke: #d62728"/>
     <use xlink:href="#m17b3d897bf" x="679.275909" y="76.348085" style="fill: #d62728; stroke: #d62728"/>
    </g>
   </g>
   <g id="line2d_36">
    <path d="M 80.794091 352.414163 
L 104.733364 361.983341 
L 128.672636 358.414452 
L 152.611909 333.982163 
L 176.551182 334.544869 
L 200.490455 338.09425 
L 224.429727 372.523239 
L 248.369 360.932182 
L 272.308273 342.424494 
L 296.247545 356.219752 
L 320.186818 313.335157 
L 344.126091 346.934632 
L 368.065364 349.531142 
L 392.004636 333.74807 
L 415.943909 345.35076 
L 439.883182 359.718626 
L 463.822455 333.630305 
L 487.761727 350.560792 
L 511.701 353.711523 
L 535.640273 331.403825 
L 559.579545 324.940664 
L 583.518818 324.940664 
L 607.458091 362.324116 
L 631.397364 369.698476 
L 655.336636 342.260913 
L 679.275909 295.088967 
" clip-path="url(#p0de81e74f2)" style="fill: none; stroke-dasharray: 3.7,1.6; stroke-dashoffset: 0; stroke: #9467bd"/>
    <defs>
     <path id="m1d9ad97432" d="M 0 3 
C 0.795609 3 1.55874 2.683901 2.12132 2.12132 
C 2.683901 1.55874 3 0.795609 3 0 
C 3 -0.795609 2.683901 -1.55874 2.12132 -2.12132 
C 1.55874 -2.683901 0.795609 -3 0 -3 
C -0.795609 -3 -1.55874 -2.683901 -2.12132 -2.12132 
C -2.683901 -1.55874 -3 -0.795609 -3 0 
C -3 0.795609 -2.683901 1.55874 -2.12132 2.12132 
C -1.55874 2.683901 -0.795609 3 0 3 
z
" style="stroke: #9467bd"/>
    </defs>
    <g clip-path="url(#p0de81e74f2)">
     <use xlink:href="#m1d9ad97432" x="80.794091" y="352.414163" style="fill: #9467bd; stroke: #9467bd"/>
     <use xlink:href="#m1d9ad97432" x="104.733364" y="361.983341" style="fill: #9467bd; stroke: #9467bd"/>
     <use xlink:href="#m1d9ad97432" x="128.672636" y="358.414452" style="fill: #9467bd; stroke: #9467bd"/>
     <use xlink:href="#m1d9ad97432" x="152.611909" y="333.982163" style="fill: #9467bd; stroke: #9467bd"/>
     <use xlink:href="#m1d9ad97432" x="176.551182" y="334.544869" style="fill: #9467bd; stroke: #9467bd"/>
     <use xlink:href="#m1d9ad97432" x="200.490455" y="338.09425" style="fill: #9467bd; stroke: #9467bd"/>
     <use xlink:href="#m1d9ad97432" x="224.429727" y="372.523239" style="fill: #9467bd; stroke: #9467bd"/>
     <use xlink:href="#m1d9ad97432" x="248.369" y="360.932182" style="fill: #9467bd; stroke: #9467bd"/>
     <use xlink:href="#m1d9ad97432" x="272.308273" y="342.424494" style="fill: #9467bd; stroke: #9467bd"/>
     <use xlink:href="#m1d9ad97432" x="296.247545" y="356.219752" style="fill: #9467bd; stroke: #9467bd"/>
     <use xlink:href="#m1d9ad97432" x="320.186818" y="313.335157" style="fill: #9467bd; stroke: #9467bd"/>
     <use xlink:href="#m1d9ad97432" x="344.126091" y="346.934632" style="fill: #9467bd; stroke: #9467bd"/>
     <use xlink:href="#m1d9ad97432" x="368.065364" y="349.531142" style="fill: #9467bd; stroke: #9467bd"/>
     <use xlink:href="#m1d9ad97432" x="392.004636" y="333.74807" style="fill: #9467bd; stroke: #9467bd"/>
     <use xlink:href="#m1d9ad97432" x="415.943909" y="345.35076" style="fill: #9467bd; stroke: #9467bd"/>
     <use xlink:href="#m1d9ad97432" x="439.883182" y="359.718626" style="fill: #9467bd; stroke: #9467bd"/>
     <use xlink:href="#m1d9ad97432" x="463.822455" y="333.630305" style="fill: #9467bd; stroke: #9467bd"/>
     <use xlink:href="#m1d9ad97432" x="487.761727" y="350.560792" style="fill: #9467bd; stroke: #9467bd"/>
     <use xlink:href="#m1d9ad97432" x="511.701" y="353.711523" style="fill: #9467bd; stroke: #9467bd"/>
     <use xlink:href="#m1d9ad97432" x="535.640273" y="331.403825" style="fill: #9467bd; stroke: #9467bd"/>
     <use xlink:href="#m1d9ad97432" x="559.579545" y="324.940664" style="fill: #9467bd; stroke: #9467bd"/>
     <use xlink:href="#m1d9ad97432" x="583.518818" y="324.940664" style="fill: #9467bd; stroke: #9467bd"/>
     <use xlink:href="#m1d9ad97432" x="607.458091" y="362.324116" style="fill: #9467bd; stroke: #9467bd"/>
     <use xlink:href="#m1d9ad97432" x="631.397364" y="369.698476" style="fill: #9467bd; stroke: #9467bd"/>
     <use xlink:href="#m1d9ad97432" x="655.336636" y="342.260913" style="fill: #9467bd; stroke: #9467bd"/>
     <use xlink:href="#m1d9ad97432" x="679.275909" y="295.088967" style="fill: #9467bd; stroke: #9467bd"/>
    </g>
   </g>
   <g id="line2d_37">
    <path d="M 50.87 90.347501 
L 709.2 90.347501 
" clip-path="url(#p0de81e74f2)" style="fill: none; stroke-dasharray: 2.96,1.28; stroke-dashoffset: 0; stroke: #808080; stroke-width: 0.8"/>
   </g>
   <g id="patch_3">
    <path d="M 50.87 389.68 
L 50.87 12.231256 
" style="fill: none; stroke: #000000; stroke-width: 0.8; stroke-linejoin: miter; stroke-linecap: square"/>
   </g>
   <g id="patch_4">
    <path d="M 709.2 389.68 
L 709.2 12.231256 
" style="fill: none; stroke: #000000; stroke-width: 0.8; stroke-linejoin: miter; stroke-linecap: square"/>
   </g>
   <g id="patch_5">
    <path d="M 50.87 389.68 
L 709.2 389.68 
" style="fill: none; stroke: #000000; stroke-width: 0.8; stroke-linejoin: miter; stroke-linecap: square"/>
   </g>
   <g id="patch_6">
    <path d="M 50.87 12.231256 
L 709.2 12.231256 
" style="fill: none; stroke: #000000; stroke-width: 0.8; stroke-linejoin: miter; stroke-linecap: square"/>
   </g>
   <g id="legend_1">
    <g id="patch_7">
     <path d="M 57.87 246.490003 
L 165.121563 246.490003 
Q 167.121563 246.490003 167.121563 244.490003 
L 167.121563 157.421253 
Q 167.121563 155.421253 165.121563 155.421253 
L 57.87 155.421253 
Q 55.87 155.421253 55.87 157.421253 
L 55.87 244.490003 
Q 55.87 246.490003 57.87 246.490003 
z
" style="fill: #ffffff; opacity: 0.8; stroke: #cccccc; stroke-linejoin: miter"/>
    </g>
    <g id="line2d_38">
     <path d="M 59.87 163.519691 
L 69.87 163.519691 
L 79.87 163.519691 
" style="fill: none; stroke-dasharray: 3.7,1.6; stroke-dashoffset: 0; stroke: #1f77b4"/>
     <g>
      <use xlink:href="#me7c6acc118" x="69.87" y="163.519691" style="fill: #1f77b4; stroke: #1f77b4"/>
     </g>
    </g>
    <g id="text_34">
     <!-- SVM -->
     <g style="fill: #36525c" transform="translate(87.87 167.019691) scale(0.1 -0.1)">
      <defs>
       <path id="DejaVuSans-53" d="M 3425 4513 
L 3425 3897 
Q 3066 4069 2747 4153 
Q 2428 4238 2131 4238 
Q 1616 4238 1336 4038 
Q 1056 3838 1056 3469 
Q 1056 3159 1242 3001 
Q 1428 2844 1947 2747 
L 2328 2669 
Q 3034 2534 3370 2195 
Q 3706 1856 3706 1288 
Q 3706 609 3251 259 
Q 2797 -91 1919 -91 
Q 1588 -91 1214 -16 
Q 841 59 441 206 
L 441 856 
Q 825 641 1194 531 
Q 1563 422 1919 422 
Q 2459 422 2753 634 
Q 3047 847 3047 1241 
Q 3047 1584 2836 1778 
Q 2625 1972 2144 2069 
L 1759 2144 
Q 1053 2284 737 2584 
Q 422 2884 422 3419 
Q 422 4038 858 4394 
Q 1294 4750 2059 4750 
Q 2388 4750 2728 4690 
Q 3069 4631 3425 4513 
z
" transform="scale(0.015625)"/>
       <path id="DejaVuSans-56" d="M 1831 0 
L 50 4666 
L 709 4666 
L 2188 738 
L 3669 4666 
L 4325 4666 
L 2547 0 
L 1831 0 
z
" transform="scale(0.015625)"/>
       <path id="DejaVuSans-4d" d="M 628 4666 
L 1569 4666 
L 2759 1491 
L 3956 4666 
L 4897 4666 
L 4897 0 
L 4281 0 
L 4281 4097 
L 3078 897 
L 2444 897 
L 1241 4097 
L 1241 0 
L 628 0 
L 628 4666 
z
" transform="scale(0.015625)"/>
      </defs>
      <use xlink:href="#DejaVuSans-53"/>
      <use xlink:href="#DejaVuSans-56" x="63.476562"/>
      <use xlink:href="#DejaVuSans-4d" x="131.884766"/>
     </g>
    </g>
    <g id="line2d_39">
     <path d="M 59.87 178.197816 
L 69.87 178.197816 
L 79.87 178.197816 
" style="fill: none; stroke-dasharray: 3.7,1.6; stroke-dashoffset: 0; stroke: #ff7f0e"/>
     <g>
      <use xlink:href="#m471a2b7968" x="69.87" y="178.197816" style="fill: #ff7f0e; stroke: #ff7f0e"/>
     </g>
    </g>
    <g id="text_35">
     <!-- Random Forest -->
     <g style="fill: #36525c" transform="translate(87.87 181.697816) scale(0.1 -0.1)">
      <defs>
       <path id="DejaVuSans-52" d="M 2841 2188 
Q 3044 2119 3236 1894 
Q 3428 1669 3622 1275 
L 4263 0 
L 3584 0 
L 2988 1197 
Q 2756 1666 2539 1819 
Q 2322 1972 1947 1972 
L 1259 1972 
L 1259 0 
L 628 0 
L 628 4666 
L 2053 4666 
Q 2853 4666 3247 4331 
Q 3641 3997 3641 3322 
Q 3641 2881 3436 2590 
Q 3231 2300 2841 2188 
z
M 1259 4147 
L 1259 2491 
L 2053 2491 
Q 2509 2491 2742 2702 
Q 2975 2913 2975 3322 
Q 2975 3731 2742 3939 
Q 2509 4147 2053 4147 
L 1259 4147 
z
" transform="scale(0.015625)"/>
       <path id="DejaVuSans-46" d="M 628 4666 
L 3309 4666 
L 3309 4134 
L 1259 4134 
L 1259 2759 
L 3109 2759 
L 3109 2228 
L 1259 2228 
L 1259 0 
L 628 0 
L 628 4666 
z
" transform="scale(0.015625)"/>
      </defs>
      <use xlink:href="#DejaVuSans-52"/>
      <use xlink:href="#DejaVuSans-61" x="67.232422"/>
      <use xlink:href="#DejaVuSans-6e" x="128.511719"/>
      <use xlink:href="#DejaVuSans-64" x="191.890625"/>
      <use xlink:href="#DejaVuSans-6f" x="255.367188"/>
      <use xlink:href="#DejaVuSans-6d" x="316.548828"/>
      <use xlink:href="#DejaVuSans-20" x="413.960938"/>
      <use xlink:href="#DejaVuSans-46" x="445.748047"/>
      <use xlink:href="#DejaVuSans-6f" x="499.642578"/>
      <use xlink:href="#DejaVuSans-72" x="560.824219"/>
      <use xlink:href="#DejaVuSans-65" x="599.6875"/>
      <use xlink:href="#DejaVuSans-73" x="661.210938"/>
      <use xlink:href="#DejaVuSans-74" x="713.310547"/>
     </g>
    </g>
    <g id="line2d_40">
     <path d="M 59.87 192.875941 
L 69.87 192.875941 
L 79.87 192.875941 
" style="fill: none; stroke-dasharray: 3.7,1.6; stroke-dashoffset: 0; stroke: #2ca02c"/>
     <g>
      <use xlink:href="#m1899baaa0d" x="69.87" y="192.875941" style="fill: #2ca02c; stroke: #2ca02c"/>
     </g>
    </g>
    <g id="text_36">
     <!-- CatBoost -->
     <g style="fill: #36525c" transform="translate(87.87 196.375941) scale(0.1 -0.1)">
      <defs>
       <path id="DejaVuSans-42" d="M 1259 2228 
L 1259 519 
L 2272 519 
Q 2781 519 3026 730 
Q 3272 941 3272 1375 
Q 3272 1813 3026 2020 
Q 2781 2228 2272 2228 
L 1259 2228 
z
M 1259 4147 
L 1259 2741 
L 2194 2741 
Q 2656 2741 2882 2914 
Q 3109 3088 3109 3444 
Q 3109 3797 2882 3972 
Q 2656 4147 2194 4147 
L 1259 4147 
z
M 628 4666 
L 2241 4666 
Q 2963 4666 3353 4366 
Q 3744 4066 3744 3513 
Q 3744 3084 3544 2831 
Q 3344 2578 2956 2516 
Q 3422 2416 3680 2098 
Q 3938 1781 3938 1306 
Q 3938 681 3513 340 
Q 3088 0 2303 0 
L 628 0 
L 628 4666 
z
" transform="scale(0.015625)"/>
      </defs>
      <use xlink:href="#DejaVuSans-43"/>
      <use xlink:href="#DejaVuSans-61" x="69.824219"/>
      <use xlink:href="#DejaVuSans-74" x="131.103516"/>
      <use xlink:href="#DejaVuSans-42" x="170.3125"/>
      <use xlink:href="#DejaVuSans-6f" x="238.916016"/>
      <use xlink:href="#DejaVuSans-6f" x="300.097656"/>
      <use xlink:href="#DejaVuSans-73" x="361.279297"/>
      <use xlink:href="#DejaVuSans-74" x="413.378906"/>
     </g>
    </g>
    <g id="line2d_41">
     <path d="M 59.87 207.554066 
L 69.87 207.554066 
L 79.87 207.554066 
" style="fill: none; stroke-dasharray: 3.7,1.6; stroke-dashoffset: 0; stroke: #d62728"/>
     <g>
      <use xlink:href="#m17b3d897bf" x="69.87" y="207.554066" style="fill: #d62728; stroke: #d62728"/>
     </g>
    </g>
    <g id="text_37">
     <!-- XGB -->
     <g style="fill: #36525c" transform="translate(87.87 211.054066) scale(0.1 -0.1)">
      <defs>
       <path id="DejaVuSans-58" d="M 403 4666 
L 1081 4666 
L 2241 2931 
L 3406 4666 
L 4084 4666 
L 2584 2425 
L 4184 0 
L 3506 0 
L 2194 1984 
L 872 0 
L 191 0 
L 1856 2491 
L 403 4666 
z
" transform="scale(0.015625)"/>
       <path id="DejaVuSans-47" d="M 3809 666 
L 3809 1919 
L 2778 1919 
L 2778 2438 
L 4434 2438 
L 4434 434 
Q 4069 175 3628 42 
Q 3188 -91 2688 -91 
Q 1594 -91 976 548 
Q 359 1188 359 2328 
Q 359 3472 976 4111 
Q 1594 4750 2688 4750 
Q 3144 4750 3555 4637 
Q 3966 4525 4313 4306 
L 4313 3634 
Q 3963 3931 3569 4081 
Q 3175 4231 2741 4231 
Q 1884 4231 1454 3753 
Q 1025 3275 1025 2328 
Q 1025 1384 1454 906 
Q 1884 428 2741 428 
Q 3075 428 3337 486 
Q 3600 544 3809 666 
z
" transform="scale(0.015625)"/>
      </defs>
      <use xlink:href="#DejaVuSans-58"/>
      <use xlink:href="#DejaVuSans-47" x="68.505859"/>
      <use xlink:href="#DejaVuSans-42" x="145.996094"/>
     </g>
    </g>
    <g id="line2d_42">
     <path d="M 59.87 222.232191 
L 69.87 222.232191 
L 79.87 222.232191 
" style="fill: none; stroke-dasharray: 3.7,1.6; stroke-dashoffset: 0; stroke: #9467bd"/>
     <g>
      <use xlink:href="#m1d9ad97432" x="69.87" y="222.232191" style="fill: #9467bd; stroke: #9467bd"/>
     </g>
    </g>
    <g id="text_38">
     <!-- MLP -->
     <g style="fill: #36525c" transform="translate(87.87 225.732191) scale(0.1 -0.1)">
      <defs>
       <path id="DejaVuSans-4c" d="M 628 4666 
L 1259 4666 
L 1259 531 
L 3531 531 
L 3531 0 
L 628 0 
L 628 4666 
z
" transform="scale(0.015625)"/>
      </defs>
      <use xlink:href="#DejaVuSans-4d"/>
      <use xlink:href="#DejaVuSans-4c" x="86.279297"/>
      <use xlink:href="#DejaVuSans-50" x="141.992188"/>
     </g>
    </g>
    <g id="line2d_43">
     <path d="M 59.87 236.910316 
L 69.87 236.910316 
L 79.87 236.910316 
" style="fill: none; stroke-dasharray: 2.96,1.28; stroke-dashoffset: 0; stroke: #808080; stroke-width: 0.8"/>
    </g>
    <g id="text_39">
     <!-- 80 % -->
     <g style="fill: #36525c" transform="translate(87.87 240.410316) scale(0.1 -0.1)">
      <use xlink:href="#DejaVuSans-38"/>
      <use xlink:href="#DejaVuSans-30" x="63.623047"/>
      <use xlink:href="#DejaVuSans-20" x="127.246094"/>
      <use xlink:href="#DejaVuSans-25" x="159.033203"/>
     </g>
    </g>
   </g>
  </g>
 </g>
 <defs>
  <clipPath id="p0de81e74f2">
   <rect x="50.87" y="12.231256" width="658.33" height="377.448744"/>
  </clipPath>
 </defs>
</svg>
